# xmcd CD database file
#
# Track frame offsets:
#	150
#	19710
#	42150
#	64755
#	94507
#	116005
#	140265
#	164722
#	188357
#	206875
#	234980
#	258812
#	279385
#	303067
#
# Disc length: 4240 seconds
#
# Revision: 0
# Processed by: cddbd v1.5.1PL0 Copyright (c) Steve Scherf et al.
# Submitted via: CDex 1.51
#
DISCID=b3108e0e
DTITLE=Kenny G - Breathless
DYEAR=1900
DGENRE=Jazz
TTITLE0=the joy of life
TTITLE1=forever in love
TTITLE2=in the rain
TTITLE3=sentimental
TTITLE4=by the time this night is over
TTITLE5=end of the night
TTITLE6=alone
TTITLE7=morning
TTITLE8=even if my heart would break
TTITLE9=g-bop
TTITLE10=sister rose
TTITLE11=a year agp
TTITLE12=homeland
TTITLE13=the wedding song
EXTD=
EXTT0=
EXTT1=
EXTT2=
EXTT3=
EXTT4=
EXTT5=
EXTT6=
EXTT7=
EXTT8=
EXTT9=
EXTT10=
EXTT11=
EXTT12=
EXTT13=
PLAYORDER=
